<svg xmlns="http://www.w3.org/2000/svg" xmlns:xlink="http://www.w3.org/1999/xlink" xmlns:lucid="lucid" width="978.1" height="786.5"><g transform="translate(640.5 804.1250000000507)" lucid:page-tab-id="0_0"><path d="M-1000-1000H500V0h-1500z" fill="#fff"/><path d="M-527.5-373.63v55M-527.5-393.4v20m-10-20l10 20m10-20l-10 20m-10 0h20M-527.5-298.85v-20m10 20l-10-20m-10 20l10-20m10 0h-20M-225.3-373.63v27.1a.4.4 0 0 1-.4.4.4.4 0 0 0-.4.4v27.1M-225.3-393.4v20m-10-20l10 20m10-20l-10 20m-10 0h20M-226.1-298.85v-20m10 20l-10-20m-10 20l10-20m10 0h-20M-358.3-542.63h-3.7a8 8 0 0 0-8 8v116a8 8 0 0 1-8 8h-16.5M-338.53-542.63h-20m20-10l-20 10m20 10l-20-10m0-10v20M-414.5-410.63h20m-10 10v-20m10 20v-20" stroke="#333" fill="none"/><path d="M-640-622.13a10 10 0 0 1 10-10h205a10 10 0 0 1 10 10v218a10 10 0 0 1-10 10h-205a10 10 0 0 1-10-10z" fill="#fff"/><path d="M-640-622.13a10 10 0 0 1 10-10h205a10 10 0 0 1 10 10v30h-225z" fill="#ccc"/><path d="M-640-592.13h225v34h-225z" fill="#fff"/><path d="M-640-559.13h225v34h-225z" fill="#e6e6e6"/><path d="M-640-526.13h225v34h-225z" fill="#fff"/><path d="M-640-493.13h225v34h-225z" fill="#e6e6e6"/><path d="M-640-460.13h225v34h-225z" fill="#fff"/><path d="M-640-427.13h225v23a10 10 0 0 1-10 10h-205a10 10 0 0 1-10-10z" fill="#e6e6e6"/><path d="M-639.5-592.13h224-224zM-640-622.13a10 10 0 0 1 10-10h205a10 10 0 0 1 10 10v218a10 10 0 0 1-10 10h-205a10 10 0 0 1-10-10z" stroke="#333" fill="none"/><use xlink:href="#a" transform="matrix(1,0,0,1,-630,-632.1249999999999) translate(11.2 27.61432291666667)"/><use xlink:href="#b" transform="matrix(1,0,0,1,-635,-589.6249999999999) translate(11.2 21.61432291666667)"/><use xlink:href="#c" transform="matrix(1,0,0,1,-635,-556.6249999999999) translate(11.2 21.61432291666667)"/><use xlink:href="#d" transform="matrix(1,0,0,1,-635,-523.6249999999999) translate(11.2 21.61432291666667)"/><use xlink:href="#e" transform="matrix(1,0,0,1,-635,-490.6249999999999) translate(11.2 21.61432291666667)"/><use xlink:href="#f" transform="matrix(1,0,0,1,-635,-457.6249999999999) translate(11.2 21.61432291666667)"/><use xlink:href="#g" transform="matrix(1,0,0,1,-635,-424.6249999999999) translate(11.2 21.61432291666667)"/><path d="M-337.8-622.13a10 10 0 0 1 10-10h205a10 10 0 0 1 10 10v218a10 10 0 0 1-10 10h-205a10 10 0 0 1-10-10z" fill="#fff"/><path d="M-337.8-622.13a10 10 0 0 1 10-10h205a10 10 0 0 1 10 10v30h-225z" fill="#ccc"/><path d="M-337.8-592.13h225v34h-225z" fill="#fff"/><path d="M-337.8-559.13h225v34h-225z" fill="#e6e6e6"/><path d="M-337.8-526.13h225v34h-225z" fill="#fff"/><path d="M-337.8-493.13h225v34h-225z" fill="#e6e6e6"/><path d="M-337.8-460.13h225v34h-225z" fill="#fff"/><path d="M-337.8-427.13h225v23a10 10 0 0 1-10 10h-205a10 10 0 0 1-10-10z" fill="#e6e6e6"/><path d="M-337.3-592.13h224-224zM-337.8-622.13a10 10 0 0 1 10-10h205a10 10 0 0 1 10 10v218a10 10 0 0 1-10 10h-205a10 10 0 0 1-10-10z" stroke="#333" fill="none"/><use xlink:href="#h" transform="matrix(1,0,0,1,-327.80806142034544,-632.1249999999999) translate(11.2 27.61432291666667)"/><use xlink:href="#b" transform="matrix(1,0,0,1,-332.80806142034544,-589.6249999999999) translate(11.2 21.61432291666667)"/><use xlink:href="#g" transform="matrix(1,0,0,1,-332.80806142034544,-556.6249999999999) translate(11.2 21.61432291666667)"/><use xlink:href="#e" transform="matrix(1,0,0,1,-332.80806142034544,-523.6249999999999) translate(11.2 21.61432291666667)"/><use xlink:href="#i" transform="matrix(1,0,0,1,-332.80806142034544,-490.6249999999999) translate(11.2 21.61432291666667)"/><use xlink:href="#c" transform="matrix(1,0,0,1,-332.80806142034544,-457.6249999999999) translate(11.2 21.61432291666667)"/><use xlink:href="#d" transform="matrix(1,0,0,1,-332.80806142034544,-424.6249999999999) translate(11.2 21.61432291666667)"/><path d="M-35.62-622.13a10 10 0 0 1 10-10h205a10 10 0 0 1 10 10v119a10 10 0 0 1-10 10h-205a10 10 0 0 1-10-10z" fill="#fff"/><path d="M-35.62-622.13a10 10 0 0 1 10-10h205a10 10 0 0 1 10 10v30h-225z" fill="#ccc"/><path d="M-35.62-592.13h225v34h-225z" fill="#fff"/><path d="M-35.62-559.13h225v34h-225z" fill="#e6e6e6"/><path d="M-35.62-526.13h225v23a10 10 0 0 1-10 10h-205a10 10 0 0 1-10-10z" fill="#fff"/><path d="M-35.12-592.13h224-224zM-35.62-622.13a10 10 0 0 1 10-10h205a10 10 0 0 1 10 10v119a10 10 0 0 1-10 10h-205a10 10 0 0 1-10-10z" stroke="#333" fill="none"/><use xlink:href="#j" transform="matrix(1,0,0,1,-25.616122840690878,-632.1249999999999) translate(11.2 27.61432291666667)"/><use xlink:href="#b" transform="matrix(1,0,0,1,-30.616122840690878,-589.6249999999999) translate(11.2 21.61432291666667)"/><use xlink:href="#k" transform="matrix(1,0,0,1,-30.616122840690878,-556.6249999999999) translate(11.2 21.61432291666667)"/><use xlink:href="#l" transform="matrix(1,0,0,1,-30.616122840690878,-523.6249999999999) translate(11.2 21.61432291666667)"/><path d="M-337.8-288.13a10 10 0 0 1 10-10h205a10 10 0 0 1 10 10v152a10 10 0 0 1-10 10h-205a10 10 0 0 1-10-10z" fill="#fff"/><path d="M-337.8-288.13a10 10 0 0 1 10-10h205a10 10 0 0 1 10 10v30h-225z" fill="#ccc"/><path d="M-337.8-258.13h225v34h-225z" fill="#fff"/><path d="M-337.8-225.13h225v34h-225z" fill="#e6e6e6"/><path d="M-337.8-192.13h225v34h-225z" fill="#fff"/><path d="M-337.8-159.13h225v23a10 10 0 0 1-10 10h-205a10 10 0 0 1-10-10z" fill="#e6e6e6"/><path d="M-337.3-258.13h224-224zM-337.8-288.13a10 10 0 0 1 10-10h205a10 10 0 0 1 10 10v152a10 10 0 0 1-10 10h-205a10 10 0 0 1-10-10z" stroke="#333" fill="none"/><use xlink:href="#m" transform="matrix(1,0,0,1,-327.80806142034544,-298.1249999999999) translate(11.2 27.61432291666667)"/><use xlink:href="#b" transform="matrix(1,0,0,1,-332.80806142034544,-255.6249999999999) translate(11.2 21.61432291666667)"/><use xlink:href="#n" transform="matrix(1,0,0,1,-332.80806142034544,-222.6249999999999) translate(11.2 21.61432291666667)"/><use xlink:href="#o" transform="matrix(1,0,0,1,-332.80806142034544,-189.6249999999999) translate(11.2 21.61432291666667)"/><use xlink:href="#p" transform="matrix(1,0,0,1,-332.80806142034544,-156.6249999999999) translate(11.2 21.61432291666667)"/><path d="M-640-288.13a10 10 0 0 1 10-10h205a10 10 0 0 1 10 10v260a10 10 0 0 1-10 10h-205a10 10 0 0 1-10-10z" fill="#fff"/><path d="M-640-288.13a10 10 0 0 1 10-10h205a10 10 0 0 1 10 10v30h-225z" fill="#ccc"/><path d="M-640-258.13h225v31h-225z" fill="#fff"/><path d="M-640-228.13h225v31h-225z" fill="#e6e6e6"/><path d="M-640-198.13h225v31h-225z" fill="#fff"/><path d="M-640-168.13h225v31h-225z" fill="#e6e6e6"/><path d="M-640-138.13h225v31h-225z" fill="#fff"/><path d="M-640-108.13h225v31h-225z" fill="#e6e6e6"/><path d="M-640-78.13h225v31h-225z" fill="#fff"/><path d="M-640-48.13h225v20a10 10 0 0 1-10 10h-205a10 10 0 0 1-10-10z" fill="#e6e6e6"/><path d="M-639.5-258.13h224-224zM-640-288.13a10 10 0 0 1 10-10h205a10 10 0 0 1 10 10v260a10 10 0 0 1-10 10h-205a10 10 0 0 1-10-10z" stroke="#333" fill="none"/><use xlink:href="#q" transform="matrix(1,0,0,1,-630,-298.1249999999999) translate(0 26.014322916666668)"/><use xlink:href="#r" transform="matrix(1,0,0,1,-635,-255.6249999999999) translate(0 18.514322916666668)"/><use xlink:href="#s" transform="matrix(1,0,0,1,-635,-225.6249999999999) translate(0 18.514322916666668)"/><use xlink:href="#t" transform="matrix(1,0,0,1,-635,-195.6249999999999) translate(0 18.514322916666668)"/><use xlink:href="#u" transform="matrix(1,0,0,1,-635,-165.6249999999999) translate(0 18.514322916666668)"/><use xlink:href="#v" transform="matrix(1,0,0,1,-635,-135.6249999999999) translate(0 18.514322916666668)"/><use xlink:href="#w" transform="matrix(1,0,0,1,-635,-105.62499999999989) translate(0 18.514322916666668)"/><use xlink:href="#x" transform="matrix(1,0,0,1,-635,-75.62499999999989) translate(0 18.514322916666668)"/><use xlink:href="#y" transform="matrix(1,0,0,1,-635,-45.624999999999886) translate(0 18.514322916666668)"/><path d="M-517.1-795.13a8 8 0 0 1 8-8h836.75a8 8 0 0 1 8 8v25.16a8 8 0 0 1-8 8H-509.1a8 8 0 0 1-8-8z" stroke="#000" stroke-opacity="0" stroke-width="2" fill="#fff" fill-opacity="0"/><use xlink:href="#z" transform="matrix(1,0,0,1,-513.1034472146571,-799.1250000000507) translate(221.51808268229166 28.429583333333333)"/><use xlink:href="#A" transform="matrix(1,0,0,1,-513.1034472146571,-799.1250000000507) translate(302.0250423177083 28.429583333333333)"/><use xlink:href="#B" transform="matrix(1,0,0,1,-513.1034472146571,-799.1250000000507) translate(398.714365234375 28.429583333333333)"/><path d="M-246.8-763.3h321M-246.78-763.3h-1.03M74.17-763.3h1.03" stroke="#a9afb8" stroke-width="2" fill="none"/><path d="M-517.1-753.97a8 8 0 0 1 8-8h837.7a8 8 0 0 1 8 8v2.85a8 8 0 0 1-8 8h-837.7a8 8 0 0 1-8-8z" stroke="#000" stroke-opacity="0" stroke-width="2" fill="#fff" fill-opacity="0"/><g><use xlink:href="#C" transform="matrix(1,0,0,1,-513.1034472146566,-757.9697760431518) translate(282.21720838758677 16.461006944444446)"/><use xlink:href="#D" transform="matrix(1,0,0,1,-513.1034472146566,-757.9697760431518) translate(349.83721978081593 16.461006944444446)"/><use xlink:href="#E" transform="matrix(1,0,0,1,-513.1034472146566,-757.9697760431518) translate(423.6322892252604 16.461006944444446)"/><use xlink:href="#F" transform="matrix(1,0,0,1,-513.1034472146566,-757.9697760431518) translate(436.3644392903646 16.461006944444446)"/><use xlink:href="#G" transform="matrix(1,0,0,1,-513.1034472146566,-757.9697760431518) translate(510.16645480685764 16.461006944444446)"/><use xlink:href="#H" transform="matrix(1,0,0,1,-513.1034472146566,-757.9697760431518) translate(535.4293188476563 16.461006944444446)"/></g><defs><path d="M409 0L70-1118h191c89 329 165 560 243 925 75-353 154-601 240-925h192c85 325 161 564 235 922 77-354 157-598 244-922h191L1267 0h-179c-86-307-176-590-250-913C763-588 675-308 588 0H409" id="I"/><path d="M471 26C259 26 90-98 90-318c0-256 228-303 435-329 202-27 287-16 287-108 0-139-79-219-234-219-161 0-248 86-283 164l-173-57c86-203 278-265 451-265 150 0 419 46 419 395V0H815v-152h-12C765-73 660 26 471 26zm31-159c199 0 310-134 310-271v-155c-30 35-226 55-295 64-131 17-246 59-246 186 0 116 97 176 231 176" id="J"/><path d="M338-1490V0H158v-1490h180" id="K"/><path d="M628 24c-324 0-524-230-524-574 0-343 198-582 503-582 237 0 487 146 487 559v75H286c9 234 145 362 343 362 132 0 231-58 273-172l174 48C1024-91 857 24 628 24zM287-650h624c-17-190-120-322-304-322-192 0-309 151-320 322" id="L"/><path d="M598-1118v154H368v674c0 100 37 144 132 144 23 0 62-6 92-12L629-6c-37 13-88 20-134 20-193 0-307-107-307-290v-688H20v-154h168v-266h180v266h230" id="M"/><path d="M538 24C308 24 148-78 108-271l171-41c32 123 123 178 257 178 156 0 256-77 256-169 0-77-54-128-164-154l-186-44c-203-48-300-148-300-305 0-192 176-326 414-326 230 0 351 112 402 269l-163 42c-31-80-94-158-238-158-133 0-233 69-233 162 0 83 57 129 188 160l169 40c203 48 298 149 298 302 0 196-179 339-441 339" id="N"/><g id="a"><use transform="matrix(0.008072916666666667,0,0,0.008072916666666667,0,0)" xlink:href="#I"/><use transform="matrix(0.008072916666666667,0,0,0.008072916666666667,13.530208333333334,0)" xlink:href="#J"/><use transform="matrix(0.008072916666666667,0,0,0.008072916666666667,22.814062500000002,0)" xlink:href="#K"/><use transform="matrix(0.008072916666666667,0,0,0.008072916666666667,26.81822916666667,0)" xlink:href="#K"/><use transform="matrix(0.008072916666666667,0,0,0.008072916666666667,30.822395833333335,0)" xlink:href="#L"/><use transform="matrix(0.008072916666666667,0,0,0.008072916666666667,40.46145833333334,0)" xlink:href="#M"/><use transform="matrix(0.008072916666666667,0,0,0.008072916666666667,45.70885416666667,0)" xlink:href="#N"/></g><path d="M370-1490V0H180v-1490h190" id="O"/><path d="M577 24c-279 0-473-224-473-580 0-354 195-576 474-576 218 0 287 134 324 193h14v-551h180V0H922v-173h-20C865-111 790 24 577 24zm27-161c203 0 314-172 314-421 0-247-108-413-314-413-212 0-317 181-317 413 0 235 108 421 317 421" id="P"/><g id="b"><use transform="matrix(0.008072916666666667,0,0,0.008072916666666667,0,0)" xlink:href="#O"/><use transform="matrix(0.008072916666666667,0,0,0.008072916666666667,4.440104166666667,0)" xlink:href="#P"/></g><path d="M180 0v-1490h908v168H370v486h669v168H370v500h727V0H180" id="Q"/><path d="M1096 418H916v-591h-14C865-111 790 24 577 24c-279 0-473-224-473-580 0-354 195-576 474-576 218 0 287 134 324 193h20v-179h174V418zM604-137c203 0 314-172 314-421 0-247-108-413-314-413-212 0-317 181-317 413 0 235 108 421 317 421" id="R"/><path d="M537 14c-226 0-379-139-379-422v-710h180v695c0 172 97 275 253 275 160 0 281-109 281-300v-670h181V0H879v-209C806-46 684 14 537 14" id="S"/><path d="M158 0v-1118h180V0H158zm91-1301c-68 0-125-53-125-119s57-119 125-119c69 0 126 53 126 119s-57 119-126 119" id="T"/><path d="M158 418v-1536h174v179h20c37-59 106-193 324-193 279 0 474 222 474 576 0 356-194 580-473 580-213 0-288-135-325-197h-14v591H158zm492-555c209 0 317-186 317-421 0-232-105-413-317-413-206 0-314 166-314 413 0 249 111 421 314 421" id="U"/><path d="M613 24c-304 0-509-231-509-576 0-350 205-580 509-580 305 0 511 230 511 580 0 345-206 576-511 576zm0-161c226 0 329-195 329-415 0-222-103-419-329-419-223 0-326 196-326 419 0 220 103 415 326 415" id="V"/><path d="M653-1490V0H466v-1314h-10L96-1047v-204l324-239h233" id="W"/><g id="c"><use transform="matrix(0.008072916666666667,0,0,0.008072916666666667,0,0)" xlink:href="#Q"/><use transform="matrix(0.008072916666666667,0,0,0.008072916666666667,9.937760416666668,0)" xlink:href="#R"/><use transform="matrix(0.008072916666666667,0,0,0.008072916666666667,20.06119791666667,0)" xlink:href="#S"/><use transform="matrix(0.008072916666666667,0,0,0.008072916666666667,29.837500000000006,0)" xlink:href="#T"/><use transform="matrix(0.008072916666666667,0,0,0.008072916666666667,33.841666666666676,0)" xlink:href="#U"/><use transform="matrix(0.008072916666666667,0,0,0.008072916666666667,43.96510416666668,0)" xlink:href="#V"/><use transform="matrix(0.008072916666666667,0,0,0.008072916666666667,53.32161458333334,0)" xlink:href="#W"/><use transform="matrix(0.008072916666666667,0,0,0.008072916666666667,60.046354166666674,0)" xlink:href="#O"/><use transform="matrix(0.008072916666666667,0,0,0.008072916666666667,64.48645833333335,0)" xlink:href="#P"/></g><path d="M154 0v-137l495-537c165-179 249-281 249-418 0-156-121-253-280-253-170 0-278 110-278 278H158c0-264 200-443 465-443 266 0 455 183 455 416 0 161-73 288-336 568L416-179v12h687V0H154" id="X"/><g id="d"><use transform="matrix(0.008072916666666667,0,0,0.008072916666666667,0,0)" xlink:href="#Q"/><use transform="matrix(0.008072916666666667,0,0,0.008072916666666667,9.937760416666668,0)" xlink:href="#R"/><use transform="matrix(0.008072916666666667,0,0,0.008072916666666667,20.06119791666667,0)" xlink:href="#S"/><use transform="matrix(0.008072916666666667,0,0,0.008072916666666667,29.837500000000006,0)" xlink:href="#T"/><use transform="matrix(0.008072916666666667,0,0,0.008072916666666667,33.841666666666676,0)" xlink:href="#U"/><use transform="matrix(0.008072916666666667,0,0,0.008072916666666667,43.96510416666668,0)" xlink:href="#V"/><use transform="matrix(0.008072916666666667,0,0,0.008072916666666667,53.878645833333344,0)" xlink:href="#X"/><use transform="matrix(0.008072916666666667,0,0,0.008072916666666667,63.96171875000001,0)" xlink:href="#O"/><use transform="matrix(0.008072916666666667,0,0,0.008072916666666667,68.40182291666667,0)" xlink:href="#P"/></g><path d="M98-1322v-168h1126v168H757V0H567v-1322H98" id="Y"/><path d="M158 0v-1118h175l1 205c55-151 181-225 313-225 147 0 245 90 285 228 53-141 190-228 352-228 194 0 352 125 352 384V0h-181v-749c0-161-105-225-225-225-151 0-243 103-243 244V0H807v-767c0-124-93-207-219-207-131 0-250 92-250 270V0H158" id="Z"/><path d="M338-670V0H158v-1118h173l1 207c72-158 192-221 342-221 226 0 378 139 378 422V0H872v-695c0-172-96-275-252-275-161 0-282 109-282 300" id="aa"/><path d="M613 24c-304 0-509-231-509-576 0-350 205-580 509-580 216 0 392 114 453 309l-173 49c-33-115-133-197-280-197-223 0-326 196-326 419 0 220 103 415 326 415 150 0 252-85 285-206l172 49C1010-95 832 24 613 24" id="ab"/><g id="e"><use transform="matrix(0.008072916666666667,0,0,0.008072916666666667,0,0)" xlink:href="#Y"/><use transform="matrix(0.008072916666666667,0,0,0.008072916666666667,10.672395833333335,0)" xlink:href="#T"/><use transform="matrix(0.008072916666666667,0,0,0.008072916666666667,14.676562500000003,0)" xlink:href="#L"/><use transform="matrix(0.008072916666666667,0,0,0.008072916666666667,24.315625,0)" xlink:href="#Z"/><use transform="matrix(0.008072916666666667,0,0,0.008072916666666667,38.798437500000006,0)" xlink:href="#U"/><use transform="matrix(0.008072916666666667,0,0,0.008072916666666667,48.92187500000001,0)" xlink:href="#V"/><use transform="matrix(0.008072916666666667,0,0,0.008072916666666667,58.835416666666674,0)" xlink:href="#O"/><use transform="matrix(0.008072916666666667,0,0,0.008072916666666667,63.27552083333334,0)" xlink:href="#aa"/><use transform="matrix(0.008072916666666667,0,0,0.008072916666666667,73.04375,0)" xlink:href="#T"/><use transform="matrix(0.008072916666666667,0,0,0.008072916666666667,77.04791666666667,0)" xlink:href="#ab"/><use transform="matrix(0.008072916666666667,0,0,0.008072916666666667,86.49322916666667,0)" xlink:href="#T"/><use transform="matrix(0.008072916666666667,0,0,0.008072916666666667,90.49739583333333,0)" xlink:href="#V"/></g><path d="M180 0v-1490h901v168H370v510h643v168H370V0H180" id="ac"/><g id="f"><use transform="matrix(0.008072916666666667,0,0,0.008072916666666667,0,0)" xlink:href="#Y"/><use transform="matrix(0.008072916666666667,0,0,0.008072916666666667,10.672395833333335,0)" xlink:href="#T"/><use transform="matrix(0.008072916666666667,0,0,0.008072916666666667,14.676562500000003,0)" xlink:href="#L"/><use transform="matrix(0.008072916666666667,0,0,0.008072916666666667,24.315625,0)" xlink:href="#Z"/><use transform="matrix(0.008072916666666667,0,0,0.008072916666666667,38.798437500000006,0)" xlink:href="#U"/><use transform="matrix(0.008072916666666667,0,0,0.008072916666666667,48.92187500000001,0)" xlink:href="#V"/><use transform="matrix(0.008072916666666667,0,0,0.008072916666666667,58.835416666666674,0)" xlink:href="#ac"/><use transform="matrix(0.008072916666666667,0,0,0.008072916666666667,68.59557291666667,0)" xlink:href="#T"/><use transform="matrix(0.008072916666666667,0,0,0.008072916666666667,72.59973958333333,0)" xlink:href="#aa"/><use transform="matrix(0.008072916666666667,0,0,0.008072916666666667,82.36796875,0)" xlink:href="#J"/><use transform="matrix(0.008072916666666667,0,0,0.008072916666666667,91.65182291666667,0)" xlink:href="#K"/></g><path d="M180 0v-1490h510c348 0 508 194 508 460 0 198-88 351-276 417L1256 0h-220L726-579c-117 2-238 0-356 1V0H180zm190-747h312c235 0 327-108 327-283 0-177-92-293-329-293H370v576" id="ad"/><g id="g"><use transform="matrix(0.008072916666666667,0,0,0.008072916666666667,0,0)" xlink:href="#ad"/><use transform="matrix(0.008072916666666667,0,0,0.008072916666666667,10.397916666666667,0)" xlink:href="#V"/><use transform="matrix(0.008072916666666667,0,0,0.008072916666666667,20.311458333333334,0)" xlink:href="#S"/><use transform="matrix(0.008072916666666667,0,0,0.008072916666666667,30.08776041666667,0)" xlink:href="#aa"/><use transform="matrix(0.008072916666666667,0,0,0.008072916666666667,39.85598958333334,0)" xlink:href="#P"/><use transform="matrix(0.008072916666666667,0,0,0.008072916666666667,49.97942708333334,0)" xlink:href="#O"/><use transform="matrix(0.008072916666666667,0,0,0.008072916666666667,54.419531250000006,0)" xlink:href="#P"/></g><path d="M934 0v166H0V0h934" id="ae"/><path d="M677 24c-213 0-288-135-325-197h-20V0H158v-1490h180v551h14c37-59 106-193 324-193 279 0 474 222 474 576 0 356-194 580-473 580zm-27-161c209 0 317-186 317-421 0-232-105-413-317-413-206 0-314 166-314 413 0 249 111 421 314 421" id="af"/><g id="h"><use transform="matrix(0.008072916666666667,0,0,0.008072916666666667,0,0)" xlink:href="#I"/><use transform="matrix(0.008072916666666667,0,0,0.008072916666666667,13.530208333333334,0)" xlink:href="#J"/><use transform="matrix(0.008072916666666667,0,0,0.008072916666666667,22.814062500000002,0)" xlink:href="#K"/><use transform="matrix(0.008072916666666667,0,0,0.008072916666666667,26.81822916666667,0)" xlink:href="#K"/><use transform="matrix(0.008072916666666667,0,0,0.008072916666666667,30.822395833333335,0)" xlink:href="#L"/><use transform="matrix(0.008072916666666667,0,0,0.008072916666666667,40.46145833333334,0)" xlink:href="#M"/><use transform="matrix(0.008072916666666667,0,0,0.008072916666666667,45.870312500000004,0)" xlink:href="#ae"/><use transform="matrix(0.008072916666666667,0,0,0.008072916666666667,53.96744791666667,0)" xlink:href="#af"/><use transform="matrix(0.008072916666666667,0,0,0.008072916666666667,64.25234375000001,0)" xlink:href="#J"/><use transform="matrix(0.008072916666666667,0,0,0.008072916666666667,73.53619791666668,0)" xlink:href="#K"/><use transform="matrix(0.008072916666666667,0,0,0.008072916666666667,77.54036458333334,0)" xlink:href="#J"/><use transform="matrix(0.008072916666666667,0,0,0.008072916666666667,86.82421875000001,0)" xlink:href="#aa"/><use transform="matrix(0.008072916666666667,0,0,0.008072916666666667,96.59244791666669,0)" xlink:href="#ab"/><use transform="matrix(0.008072916666666667,0,0,0.008072916666666667,106.03776041666669,0)" xlink:href="#L"/><use transform="matrix(0.008072916666666667,0,0,0.008072916666666667,115.67682291666668,0)" xlink:href="#N"/></g><path d="M645 0H180v-1490h484c435 0 692 280 692 742 0 466-257 748-711 748zM370-168h263c363 0 539-218 539-580 0-358-176-574-521-574H370v1154" id="ag"/><path d="M158 0v-1118h174v172h12c41-113 157-188 290-188 26 0 70 2 91 3v181c-11-2-60-10-108-10-161 0-279 109-279 260V0H158" id="ah"/><path d="M613 24c-304 0-509-231-509-576 0-350 205-580 509-580 305 0 511 230 511 580 0 345-206 576-511 576zm0-161c226 0 329-195 329-415 0-222-103-419-329-419-223 0-326 196-326 419 0 220 103 415 326 415zm-79-1127l140-294h201l-194 294H534" id="ai"/><g id="i"><use transform="matrix(0.008072916666666667,0,0,0.008072916666666667,0,0)" xlink:href="#ag"/><use transform="matrix(0.008072916666666667,0,0,0.008072916666666667,11.931770833333335,0)" xlink:href="#L"/><use transform="matrix(0.008072916666666667,0,0,0.008072916666666667,21.570833333333336,0)" xlink:href="#N"/><use transform="matrix(0.008072916666666667,0,0,0.008072916666666667,30.297656250000003,0)" xlink:href="#ab"/><use transform="matrix(0.008072916666666667,0,0,0.008072916666666667,39.74296875,0)" xlink:href="#ah"/><use transform="matrix(0.008072916666666667,0,0,0.008072916666666667,46.22552083333333,0)" xlink:href="#T"/><use transform="matrix(0.008072916666666667,0,0,0.008072916666666667,50.229687500000004,0)" xlink:href="#U"/><use transform="matrix(0.008072916666666667,0,0,0.008072916666666667,60.353125000000006,0)" xlink:href="#ab"/><use transform="matrix(0.008072916666666667,0,0,0.008072916666666667,69.7984375,0)" xlink:href="#T"/><use transform="matrix(0.008072916666666667,0,0,0.008072916666666667,73.80260416666667,0)" xlink:href="#ai"/><use transform="matrix(0.008072916666666667,0,0,0.008072916666666667,83.71614583333334,0)" xlink:href="#aa"/></g><g id="j"><use transform="matrix(0.008072916666666667,0,0,0.008072916666666667,0,0)" xlink:href="#M"/><use transform="matrix(0.008072916666666667,0,0,0.008072916666666667,5.408854166666667,0)" xlink:href="#ah"/><use transform="matrix(0.008072916666666667,0,0,0.008072916666666667,11.633072916666666,0)" xlink:href="#J"/><use transform="matrix(0.008072916666666667,0,0,0.008072916666666667,20.916927083333334,0)" xlink:href="#aa"/><use transform="matrix(0.008072916666666667,0,0,0.008072916666666667,30.685156250000002,0)" xlink:href="#N"/><use transform="matrix(0.008072916666666667,0,0,0.008072916666666667,39.41197916666667,0)" xlink:href="#J"/><use transform="matrix(0.008072916666666667,0,0,0.008072916666666667,48.69583333333334,0)" xlink:href="#ab"/><use transform="matrix(0.008072916666666667,0,0,0.008072916666666667,58.14114583333334,0)" xlink:href="#M"/><use transform="matrix(0.008072916666666667,0,0,0.008072916666666667,63.550000000000004,0)" xlink:href="#T"/><use transform="matrix(0.008072916666666667,0,0,0.008072916666666667,67.55416666666667,0)" xlink:href="#V"/><use transform="matrix(0.008072916666666667,0,0,0.008072916666666667,77.46770833333336,0)" xlink:href="#aa"/><use transform="matrix(0.008072916666666667,0,0,0.008072916666666667,87.23593750000002,0)" xlink:href="#N"/></g><path d="M180 0v-1490h224l606 953c40 63 108 177 176 312-27-437-7-821-13-1265h190V0h-226C860-448 622-778 356-1262c27 476 11 792 15 1262H180" id="aj"/><path d="M763 24c-353 0-583-224-583-531v-983h190v968c0 214 149 370 393 370 243 0 391-156 391-370v-968h190v983c0 307-230 531-581 531" id="ak"/><g id="k"><use transform="matrix(0.008072916666666667,0,0,0.008072916666666667,0,0)" xlink:href="#aj"/><use transform="matrix(0.008072916666666667,0,0,0.008072916666666667,12.456510416666667,0)" xlink:href="#V"/><use transform="matrix(0.008072916666666667,0,0,0.008072916666666667,22.370052083333334,0)" xlink:href="#Z"/><use transform="matrix(0.008072916666666667,0,0,0.008072916666666667,36.852864583333336,0)" xlink:href="#af"/><use transform="matrix(0.008072916666666667,0,0,0.008072916666666667,46.97630208333334,0)" xlink:href="#ah"/><use transform="matrix(0.008072916666666667,0,0,0.008072916666666667,52.92604166666667,0)" xlink:href="#L"/><use transform="matrix(0.008072916666666667,0,0,0.008072916666666667,62.56510416666667,0)" xlink:href="#ak"/><use transform="matrix(0.008072916666666667,0,0,0.008072916666666667,74.86822916666668,0)" xlink:href="#N"/><use transform="matrix(0.008072916666666667,0,0,0.008072916666666667,83.59505208333334,0)" xlink:href="#S"/><use transform="matrix(0.008072916666666667,0,0,0.008072916666666667,93.37135416666668,0)" xlink:href="#J"/><use transform="matrix(0.008072916666666667,0,0,0.008072916666666667,102.65520833333335,0)" xlink:href="#ah"/><use transform="matrix(0.008072916666666667,0,0,0.008072916666666667,109.1377604166667,0)" xlink:href="#T"/><use transform="matrix(0.008072916666666667,0,0,0.008072916666666667,113.14192708333336,0)" xlink:href="#V"/></g><path d="M783 20c-382 0-661-292-661-764 0-473 279-766 661-766 302 0 548 182 601 489h-190c-42-204-217-313-411-313-268 0-476 208-476 590 0 381 209 588 476 588 195 0 369-110 411-313h190c-52 303-296 489-601 489" id="al"/><path d="M338-670V0H158v-1118h173l1 207c72-158 192-221 342-221 226 0 378 139 378 422V0H872v-695c0-172-96-275-252-275-161 0-282 109-282 300zm398-643c-99 0-192-83-243-83-35 0-51 40-53 79H314c4-120 55-208 162-208 104 0 174 85 241 85 33 0 49-23 56-81h123c-4 126-62 208-160 208" id="am"/><g id="l"><use transform="matrix(0.008072916666666667,0,0,0.008072916666666667,0,0)" xlink:href="#al"/><use transform="matrix(0.008072916666666667,0,0,0.008072916666666667,12.077083333333334,0)" xlink:href="#V"/><use transform="matrix(0.008072916666666667,0,0,0.008072916666666667,21.990625,0)" xlink:href="#aa"/><use transform="matrix(0.008072916666666667,0,0,0.008072916666666667,31.75885416666667,0)" xlink:href="#M"/><use transform="matrix(0.008072916666666667,0,0,0.008072916666666667,37.16770833333334,0)" xlink:href="#ah"/><use transform="matrix(0.008072916666666667,0,0,0.008072916666666667,43.391927083333336,0)" xlink:href="#J"/><use transform="matrix(0.008072916666666667,0,0,0.008072916666666667,52.67578125,0)" xlink:href="#N"/><use transform="matrix(0.008072916666666667,0,0,0.008072916666666667,61.40260416666667,0)" xlink:href="#L"/><use transform="matrix(0.008072916666666667,0,0,0.008072916666666667,71.04166666666667,0)" xlink:href="#am"/><use transform="matrix(0.008072916666666667,0,0,0.008072916666666667,80.80989583333334,0)" xlink:href="#J"/></g><path d="M65 0l393-574-370-544h210c88 136 192 297 267 435 67-142 176-302 264-435h206L661-564 1053 0H844c-94-144-206-310-287-458C484-308 366-142 273 0H65" id="an"/><g id="m"><use transform="matrix(0.008072916666666667,0,0,0.008072916666666667,0,0)" xlink:href="#V"/><use transform="matrix(0.008072916666666667,0,0,0.008072916666666667,9.913541666666667,0)" xlink:href="#S"/><use transform="matrix(0.008072916666666667,0,0,0.008072916666666667,19.68984375,0)" xlink:href="#M"/><use transform="matrix(0.008072916666666667,0,0,0.008072916666666667,25.09869791666667,0)" xlink:href="#af"/><use transform="matrix(0.008072916666666667,0,0,0.008072916666666667,35.222135416666674,0)" xlink:href="#V"/><use transform="matrix(0.008072916666666667,0,0,0.008072916666666667,44.76432291666667,0)" xlink:href="#an"/></g><g id="n"><use transform="matrix(0.008072916666666667,0,0,0.008072916666666667,0,0)" xlink:href="#aj"/><use transform="matrix(0.008072916666666667,0,0,0.008072916666666667,12.456510416666667,0)" xlink:href="#V"/><use transform="matrix(0.008072916666666667,0,0,0.008072916666666667,22.370052083333334,0)" xlink:href="#Z"/><use transform="matrix(0.008072916666666667,0,0,0.008072916666666667,36.852864583333336,0)" xlink:href="#af"/><use transform="matrix(0.008072916666666667,0,0,0.008072916666666667,46.97630208333334,0)" xlink:href="#ah"/><use transform="matrix(0.008072916666666667,0,0,0.008072916666666667,52.92604166666667,0)" xlink:href="#L"/></g><path d="M180 0v-1490h190v1322h690V0H180" id="ao"/><path d="M611 442c-248 0-391-105-460-228l146-94c47 65 117 165 314 165 178 0 307-82 307-266v-224h-17C863-141 792-18 576-18c-268 0-472-195-472-546 0-346 197-568 476-568 216 0 288 133 326 193h17v-179h175V29c0 289-215 413-487 413zm-5-620c203 0 314-146 314-390 0-237-108-403-314-403-213 0-319 180-319 403 0 230 109 390 319 390" id="ap"/><g id="o"><use transform="matrix(0.008072916666666667,0,0,0.008072916666666667,0,0)" xlink:href="#ao"/><use transform="matrix(0.008072916666666667,0,0,0.008072916666666667,9.348437500000001,0)" xlink:href="#V"/><use transform="matrix(0.008072916666666667,0,0,0.008072916666666667,19.26197916666667,0)" xlink:href="#ap"/><use transform="matrix(0.008072916666666667,0,0,0.008072916666666667,29.401562500000004,0)" xlink:href="#V"/></g><path d="M180 0v-1490h190v644h782v-644h190V0h-190v-678H370V0H180" id="aq"/><path d="M158 0v-1490h180v865h22l478-493h223L593-638 1096 0H865L456-523 338-412V0H158" id="ar"/><path d="M140 405l46-156c120 36 205 19 263-150l32-93L54-1118h197c107 313 237 620 324 950 87-331 219-637 326-950h196L606 167c-68 178-176 259-334 259-64 0-113-12-132-21" id="as"/><g id="p"><use transform="matrix(0.008072916666666667,0,0,0.008072916666666667,0,0)" xlink:href="#Q"/><use transform="matrix(0.008072916666666667,0,0,0.008072916666666667,9.937760416666668,0)" xlink:href="#R"/><use transform="matrix(0.008072916666666667,0,0,0.008072916666666667,20.06119791666667,0)" xlink:href="#S"/><use transform="matrix(0.008072916666666667,0,0,0.008072916666666667,29.837500000000006,0)" xlink:href="#T"/><use transform="matrix(0.008072916666666667,0,0,0.008072916666666667,33.841666666666676,0)" xlink:href="#U"/><use transform="matrix(0.008072916666666667,0,0,0.008072916666666667,43.96510416666668,0)" xlink:href="#V"/><use transform="matrix(0.008072916666666667,0,0,0.008072916666666667,53.878645833333344,0)" xlink:href="#aq"/><use transform="matrix(0.008072916666666667,0,0,0.008072916666666667,66.165625,0)" xlink:href="#V"/><use transform="matrix(0.008072916666666667,0,0,0.008072916666666667,76.07916666666668,0)" xlink:href="#ab"/><use transform="matrix(0.008072916666666667,0,0,0.008072916666666667,85.52447916666668,0)" xlink:href="#ar"/><use transform="matrix(0.008072916666666667,0,0,0.008072916666666667,94.22708333333335,0)" xlink:href="#L"/><use transform="matrix(0.008072916666666667,0,0,0.008072916666666667,103.54322916666669,0)" xlink:href="#as"/><use transform="matrix(0.008072916666666667,0,0,0.008072916666666667,112.9158854166667,0)" xlink:href="#O"/><use transform="matrix(0.008072916666666667,0,0,0.008072916666666667,117.35598958333337,0)" xlink:href="#P"/></g><g id="q"><use transform="matrix(0.008072916666666667,0,0,0.008072916666666667,0,0)" xlink:href="#T"/><use transform="matrix(0.008072916666666667,0,0,0.008072916666666667,4.004166666666667,0)" xlink:href="#P"/><use transform="matrix(0.008072916666666667,0,0,0.008072916666666667,14.127604166666668,0)" xlink:href="#L"/><use transform="matrix(0.008072916666666667,0,0,0.008072916666666667,23.76666666666667,0)" xlink:href="#Z"/><use transform="matrix(0.008072916666666667,0,0,0.008072916666666667,38.24947916666668,0)" xlink:href="#U"/><use transform="matrix(0.008072916666666667,0,0,0.008072916666666667,48.372916666666676,0)" xlink:href="#V"/><use transform="matrix(0.008072916666666667,0,0,0.008072916666666667,58.286458333333336,0)" xlink:href="#M"/><use transform="matrix(0.008072916666666667,0,0,0.008072916666666667,63.53385416666667,0)" xlink:href="#L"/><use transform="matrix(0.008072916666666667,0,0,0.008072916666666667,73.17291666666668,0)" xlink:href="#aa"/><use transform="matrix(0.008072916666666667,0,0,0.008072916666666667,82.94114583333335,0)" xlink:href="#ab"/><use transform="matrix(0.008072916666666667,0,0,0.008072916666666667,92.06354166666668,0)" xlink:href="#as"/><use transform="matrix(0.008072916666666667,0,0,0.008072916666666667,100.04765625000002,0)" xlink:href="#ae"/><use transform="matrix(0.008072916666666667,0,0,0.008072916666666667,108.14479166666668,0)" xlink:href="#ah"/><use transform="matrix(0.008072916666666667,0,0,0.008072916666666667,114.09453125000002,0)" xlink:href="#L"/><use transform="matrix(0.008072916666666667,0,0,0.008072916666666667,123.73359375000001,0)" xlink:href="#ab"/><use transform="matrix(0.008072916666666667,0,0,0.008072916666666667,133.17890625,0)" xlink:href="#V"/><use transform="matrix(0.008072916666666667,0,0,0.008072916666666667,143.09244791666669,0)" xlink:href="#ah"/><use transform="matrix(0.008072916666666667,0,0,0.008072916666666667,149.0421875,0)" xlink:href="#P"/><use transform="matrix(0.008072916666666667,0,0,0.008072916666666667,159.165625,0)" xlink:href="#N"/></g><g id="r"><use transform="matrix(0.008072916666666667,0,0,0.008072916666666667,0,0)" xlink:href="#O"/><use transform="matrix(0.008072916666666667,0,0,0.008072916666666667,4.440104166666667,0)" xlink:href="#P"/></g><path d="M537 14c-226 0-379-139-379-422v-710h180v695c0 172 97 275 253 275 160 0 281-109 281-300v-670h181V0H879v-209C806-46 684 14 537 14zm-11-1278l140-294h201l-194 294H526" id="at"/><path d="M657 26c-323 0-524-166-541-416h195c15 169 171 246 346 246 202 0 356-106 356-265 5-203-294-238-475-293-239-73-380-191-380-389 0-252 224-419 512-419 294 0 499 171 508 396H992c-17-145-151-228-328-228-193 0-321 102-321 242 0 156 175 211 284 241l149 41c160 44 422 134 422 412 0 244-197 432-541 432" id="au"/><path d="M338-670V0H158v-1490h180v566c73-149 190-208 336-208 226 0 379 139 379 422V0H872v-695c0-172-96-275-252-275-161 0-282 109-282 300" id="av"/><g id="s"><use transform="matrix(0.008072916666666667,0,0,0.008072916666666667,0,0)" xlink:href="#aj"/><use transform="matrix(0.008072916666666667,0,0,0.008072916666666667,12.456510416666667,0)" xlink:href="#at"/><use transform="matrix(0.008072916666666667,0,0,0.008072916666666667,22.2328125,0)" xlink:href="#Z"/><use transform="matrix(0.008072916666666667,0,0,0.008072916666666667,36.715625,0)" xlink:href="#L"/><use transform="matrix(0.008072916666666667,0,0,0.008072916666666667,46.354687500000004,0)" xlink:href="#ah"/><use transform="matrix(0.008072916666666667,0,0,0.008072916666666667,52.30442708333334,0)" xlink:href="#V"/><use transform="matrix(0.008072916666666667,0,0,0.008072916666666667,62.217968750000004,0)" xlink:href="#au"/><use transform="matrix(0.008072916666666667,0,0,0.008072916666666667,72.82578125,0)" xlink:href="#av"/><use transform="matrix(0.008072916666666667,0,0,0.008072916666666667,82.60208333333334,0)" xlink:href="#S"/><use transform="matrix(0.008072916666666667,0,0,0.008072916666666667,92.37838541666667,0)" xlink:href="#M"/><use transform="matrix(0.008072916666666667,0,0,0.008072916666666667,97.62578125,0)" xlink:href="#V"/><use transform="matrix(0.008072916666666667,0,0,0.008072916666666667,107.53932291666669,0)" xlink:href="#S"/><use transform="matrix(0.008072916666666667,0,0,0.008072916666666667,117.31562500000003,0)" xlink:href="#M"/><use transform="matrix(0.008072916666666667,0,0,0.008072916666666667,122.56302083333337,0)" xlink:href="#N"/></g><path d="M158 0v-1118h180V0H158zm12-1264l140-294h201l-194 294H170" id="aw"/><path d="M789 20c-398 0-667-293-667-764 0-473 273-766 655-766 315 0 558 198 612 487h-196c-61-191-204-311-415-311-262 0-471 207-471 590 0 380 208 588 482 588 249 0 420-165 425-427H828v-166h572v163c0 370-256 606-611 606" id="ax"/><g id="t"><use transform="matrix(0.008072916666666667,0,0,0.008072916666666667,0,0)" xlink:href="#ao"/><use transform="matrix(0.008072916666666667,0,0,0.008072916666666667,9.348437500000001,0)" xlink:href="#aw"/><use transform="matrix(0.008072916666666667,0,0,0.008072916666666667,13.35260416666667,0)" xlink:href="#P"/><use transform="matrix(0.008072916666666667,0,0,0.008072916666666667,23.47604166666667,0)" xlink:href="#L"/><use transform="matrix(0.008072916666666667,0,0,0.008072916666666667,33.11510416666667,0)" xlink:href="#ah"/><use transform="matrix(0.008072916666666667,0,0,0.008072916666666667,39.33932291666667,0)" xlink:href="#ax"/><use transform="matrix(0.008072916666666667,0,0,0.008072916666666667,51.674739583333334,0)" xlink:href="#V"/><use transform="matrix(0.008072916666666667,0,0,0.008072916666666667,61.58828125,0)" xlink:href="#K"/><use transform="matrix(0.008072916666666667,0,0,0.008072916666666667,65.59244791666667,0)" xlink:href="#L"/><use transform="matrix(0.008072916666666667,0,0,0.008072916666666667,75.23151041666668,0)" xlink:href="#N"/><use transform="matrix(0.008072916666666667,0,0,0.008072916666666667,83.95833333333334,0)" xlink:href="#O"/><use transform="matrix(0.008072916666666667,0,0,0.008072916666666667,88.39843750000001,0)" xlink:href="#P"/></g><path d="M52 0l541-1490h220L1361 0h-200l-149-416H398L254 0H52zm404-582h497c-103-290-145-390-251-756-108 377-145 460-246 756" id="ay"/><g id="u"><use transform="matrix(0.008072916666666667,0,0,0.008072916666666667,0,0)" xlink:href="#ao"/><use transform="matrix(0.008072916666666667,0,0,0.008072916666666667,9.348437500000001,0)" xlink:href="#aw"/><use transform="matrix(0.008072916666666667,0,0,0.008072916666666667,13.35260416666667,0)" xlink:href="#P"/><use transform="matrix(0.008072916666666667,0,0,0.008072916666666667,23.47604166666667,0)" xlink:href="#L"/><use transform="matrix(0.008072916666666667,0,0,0.008072916666666667,33.11510416666667,0)" xlink:href="#ah"/><use transform="matrix(0.008072916666666667,0,0,0.008072916666666667,38.68541666666667,0)" xlink:href="#ay"/><use transform="matrix(0.008072916666666667,0,0,0.008072916666666667,50.09244791666667,0)" xlink:href="#N"/><use transform="matrix(0.008072916666666667,0,0,0.008072916666666667,58.81927083333334,0)" xlink:href="#T"/><use transform="matrix(0.008072916666666667,0,0,0.008072916666666667,62.82343750000001,0)" xlink:href="#N"/><use transform="matrix(0.008072916666666667,0,0,0.008072916666666667,71.55026041666667,0)" xlink:href="#M"/><use transform="matrix(0.008072916666666667,0,0,0.008072916666666667,76.79765625000002,0)" xlink:href="#L"/><use transform="matrix(0.008072916666666667,0,0,0.008072916666666667,86.43671875000001,0)" xlink:href="#aa"/><use transform="matrix(0.008072916666666667,0,0,0.008072916666666667,96.20494791666668,0)" xlink:href="#ab"/><use transform="matrix(0.008072916666666667,0,0,0.008072916666666667,105.65026041666668,0)" xlink:href="#T"/><use transform="matrix(0.008072916666666667,0,0,0.008072916666666667,109.65442708333335,0)" xlink:href="#J"/><use transform="matrix(0.008072916666666667,0,0,0.008072916666666667,118.93828125000002,0)" xlink:href="#N"/><use transform="matrix(0.008072916666666667,0,0,0.008072916666666667,127.66510416666668,0)" xlink:href="#O"/><use transform="matrix(0.008072916666666667,0,0,0.008072916666666667,132.10520833333334,0)" xlink:href="#P"/></g><path d="M180 0v-1490h510c348 0 508 209 508 474 0 266-160 477-507 477H370V0H180zm190-706h312c236 0 327-133 327-310 0-176-91-307-329-307H370v617" id="az"/><g id="v"><use transform="matrix(0.008072916666666667,0,0,0.008072916666666667,0,0)" xlink:href="#ao"/><use transform="matrix(0.008072916666666667,0,0,0.008072916666666667,9.348437500000001,0)" xlink:href="#aw"/><use transform="matrix(0.008072916666666667,0,0,0.008072916666666667,13.35260416666667,0)" xlink:href="#P"/><use transform="matrix(0.008072916666666667,0,0,0.008072916666666667,23.47604166666667,0)" xlink:href="#L"/><use transform="matrix(0.008072916666666667,0,0,0.008072916666666667,33.11510416666667,0)" xlink:href="#ah"/><use transform="matrix(0.008072916666666667,0,0,0.008072916666666667,39.59765625,0)" xlink:href="#az"/><use transform="matrix(0.008072916666666667,0,0,0.008072916666666667,50.06822916666667,0)" xlink:href="#L"/><use transform="matrix(0.008072916666666667,0,0,0.008072916666666667,59.70729166666667,0)" xlink:href="#aa"/><use transform="matrix(0.008072916666666667,0,0,0.008072916666666667,69.47552083333333,0)" xlink:href="#J"/><use transform="matrix(0.008072916666666667,0,0,0.008072916666666667,78.759375,0)" xlink:href="#K"/><use transform="matrix(0.008072916666666667,0,0,0.008072916666666667,83.00572916666667,0)" xlink:href="#M"/><use transform="matrix(0.008072916666666667,0,0,0.008072916666666667,88.73750000000001,0)" xlink:href="#as"/><use transform="matrix(0.008072916666666667,0,0,0.008072916666666667,98.11015625,0)" xlink:href="#O"/><use transform="matrix(0.008072916666666667,0,0,0.008072916666666667,102.55026041666669,0)" xlink:href="#P"/></g><path d="M180 0v-1490h270l367 940c28 72 75 218 110 339 35-117 81-264 110-339l362-940h271V0h-187c2-448-5-837 7-1287-157 497-311 829-483 1287H842C666-458 514-784 354-1284c12 438 5 843 7 1284H180" id="aA"/><path d="M471 26C259 26 90-98 90-318c0-256 228-303 435-329 202-27 287-16 287-108 0-139-79-219-234-219-161 0-248 86-283 164l-173-57c86-203 278-265 451-265 150 0 419 46 419 395V0H815v-152h-12C765-73 660 26 471 26zm31-159c199 0 310-134 310-271v-155c-30 35-226 55-295 64-131 17-246 59-246 186 0 116 97 176 231 176zm-23-1131l140-294h201l-194 294H479" id="aB"/><g id="w"><use transform="matrix(0.008072916666666667,0,0,0.008072916666666667,0,0)" xlink:href="#ao"/><use transform="matrix(0.008072916666666667,0,0,0.008072916666666667,9.348437500000001,0)" xlink:href="#aw"/><use transform="matrix(0.008072916666666667,0,0,0.008072916666666667,13.35260416666667,0)" xlink:href="#P"/><use transform="matrix(0.008072916666666667,0,0,0.008072916666666667,23.47604166666667,0)" xlink:href="#L"/><use transform="matrix(0.008072916666666667,0,0,0.008072916666666667,33.11510416666667,0)" xlink:href="#ah"/><use transform="matrix(0.008072916666666667,0,0,0.008072916666666667,39.59765625,0)" xlink:href="#aA"/><use transform="matrix(0.008072916666666667,0,0,0.008072916666666667,54.532552083333336,0)" xlink:href="#aB"/><use transform="matrix(0.008072916666666667,0,0,0.008072916666666667,63.81640625,0)" xlink:href="#N"/><use transform="matrix(0.008072916666666667,0,0,0.008072916666666667,72.54322916666666,0)" xlink:href="#aA"/><use transform="matrix(0.008072916666666667,0,0,0.008072916666666667,87.478125,0)" xlink:href="#L"/><use transform="matrix(0.008072916666666667,0,0,0.008072916666666667,97.1171875,0)" xlink:href="#aa"/><use transform="matrix(0.008072916666666667,0,0,0.008072916666666667,106.88541666666667,0)" xlink:href="#V"/><use transform="matrix(0.008072916666666667,0,0,0.008072916666666667,116.79895833333333,0)" xlink:href="#N"/><use transform="matrix(0.008072916666666667,0,0,0.008072916666666667,125.52578125,0)" xlink:href="#O"/><use transform="matrix(0.008072916666666667,0,0,0.008072916666666667,129.96588541666665,0)" xlink:href="#P"/></g><path d="M678-1118v154H420V0H240v-964H20v-154h220v-149c0-194 155-293 318-293 85 0 141 18 168 30l-50 154c-19-6-47-17-97-17-111 0-159 58-159 166v109h258" id="aC"/><g id="x"><use transform="matrix(0.008072916666666667,0,0,0.008072916666666667,0,0)" xlink:href="#ao"/><use transform="matrix(0.008072916666666667,0,0,0.008072916666666667,9.348437500000001,0)" xlink:href="#aw"/><use transform="matrix(0.008072916666666667,0,0,0.008072916666666667,13.35260416666667,0)" xlink:href="#P"/><use transform="matrix(0.008072916666666667,0,0,0.008072916666666667,23.47604166666667,0)" xlink:href="#L"/><use transform="matrix(0.008072916666666667,0,0,0.008072916666666667,33.11510416666667,0)" xlink:href="#ah"/><use transform="matrix(0.008072916666666667,0,0,0.008072916666666667,39.59765625,0)" xlink:href="#ac"/><use transform="matrix(0.008072916666666667,0,0,0.008072916666666667,48.954166666666666,0)" xlink:href="#J"/><use transform="matrix(0.008072916666666667,0,0,0.008072916666666667,58.23802083333334,0)" xlink:href="#ab"/><use transform="matrix(0.008072916666666667,0,0,0.008072916666666667,67.68333333333334,0)" xlink:href="#L"/><use transform="matrix(0.008072916666666667,0,0,0.008072916666666667,77.32239583333333,0)" xlink:href="#V"/><use transform="matrix(0.008072916666666667,0,0,0.008072916666666667,87.2359375,0)" xlink:href="#aC"/><use transform="matrix(0.008072916666666667,0,0,0.008072916666666667,92.70937500000001,0)" xlink:href="#aC"/><use transform="matrix(0.008072916666666667,0,0,0.008072916666666667,98.45729166666668,0)" xlink:href="#N"/><use transform="matrix(0.008072916666666667,0,0,0.008072916666666667,107.18411458333334,0)" xlink:href="#O"/><use transform="matrix(0.008072916666666667,0,0,0.008072916666666667,111.62421875000001,0)" xlink:href="#P"/></g><g id="y"><use transform="matrix(0.008072916666666667,0,0,0.008072916666666667,0,0)" xlink:href="#ao"/><use transform="matrix(0.008072916666666667,0,0,0.008072916666666667,9.348437500000001,0)" xlink:href="#aw"/><use transform="matrix(0.008072916666666667,0,0,0.008072916666666667,13.35260416666667,0)" xlink:href="#P"/><use transform="matrix(0.008072916666666667,0,0,0.008072916666666667,23.47604166666667,0)" xlink:href="#L"/><use transform="matrix(0.008072916666666667,0,0,0.008072916666666667,33.11510416666667,0)" xlink:href="#ah"/><use transform="matrix(0.008072916666666667,0,0,0.008072916666666667,39.33932291666667,0)" xlink:href="#au"/><use transform="matrix(0.008072916666666667,0,0,0.008072916666666667,49.94713541666667,0)" xlink:href="#V"/><use transform="matrix(0.008072916666666667,0,0,0.008072916666666667,59.86067708333334,0)" xlink:href="#ap"/><use transform="matrix(0.008072916666666667,0,0,0.008072916666666667,70.00026041666666,0)" xlink:href="#O"/><use transform="matrix(0.008072916666666667,0,0,0.008072916666666667,74.44036458333333,0)" xlink:href="#P"/></g><path fill="#a9afb8" d="M449 0L49-1490h333c89 395 194 758 253 1185 65-426 176-790 269-1185h317c93 394 201 758 268 1181 60-425 164-788 253-1181h334L1675 0h-348c-90-376-204-711-266-1118C1004-714 886-373 798 0H449" id="aD"/><path fill="#a9afb8" d="M440 22C227 22 68-92 68-313c0-250 202-322 422-343 195-21 271-24 271-105 0-95-63-149-175-149-116 0-187 57-211 129l-275-46c57-194 237-305 487-305 240 0 474 108 474 379V0H777v-155h-10C713-51 605 22 440 22zm85-211c140 0 238-93 238-211v-121c-37 26-156 42-222 51-111 16-185 59-185 149 0 87 70 132 169 132" id="aE"/><path fill="#a9afb8" d="M428-1490V0H128v-1490h300" id="aF"/><path fill="#a9afb8" d="M633 22C291 22 81-200 81-553c0-345 210-579 537-579 292 0 525 185 525 567v84H378c7 183 109 277 260 277 105 0 184-46 216-132l272 51C1071-99 893 22 633 22zM380-669h474c-15-146-94-237-233-237-143 0-229 99-241 237" id="aG"/><path fill="#a9afb8" d="M683-1118v229H474v562c0 71 29 104 102 104 23 0 73-7 95-13l43 225C647 9 580 16 520 16 296 16 174-96 174-301v-588H20v-229h154v-266h300v266h209" id="aH"/><g id="z"><use transform="matrix(0.011907552083333333,0,0,0.011907552083333333,0,0)" xlink:href="#aD"/><use transform="matrix(0.011907552083333333,0,0,0.011907552083333333,23.89845703125,0)" xlink:href="#aE"/><use transform="matrix(0.011907552083333333,0,0,0.011907552083333333,38.05653645833333,0)" xlink:href="#aF"/><use transform="matrix(0.011907552083333333,0,0,0.011907552083333333,44.665227864583336,0)" xlink:href="#aF"/><use transform="matrix(0.011907552083333333,0,0,0.011907552083333333,51.273919270833346,0)" xlink:href="#aG"/><use transform="matrix(0.011907552083333333,0,0,0.011907552083333333,65.8011328125,0)" xlink:href="#aH"/></g><path fill="#a9afb8" d="M681 22C323 22 94-145 85-462h297c10 151 131 226 296 226 163 0 271-77 271-190 0-102-95-149-257-189l-164-41c-252-61-403-188-403-405 0-269 236-449 560-449 330 0 546 183 551 445H941c-11-119-106-188-259-188-156 0-244 72-244 172-3 156 226 185 373 221 250 61 445 186 445 436 0 271-213 446-575 446" id="aI"/><path fill="#a9afb8" d="M128 0v-1118h290v195h12c54-169 184-238 367-200v268c-27-8-86-15-130-15-138 0-239 95-239 234V0H128" id="aJ"/><path fill="#a9afb8" d="M443 0L31-1118h319c90 293 199 572 268 885 66-313 175-593 264-885h315L784 0H443" id="aK"/><path fill="#a9afb8" d="M128 0v-1118h300V0H128zm150-1264c-91 0-165-68-165-154 0-85 74-154 165-154 90 0 165 69 165 154 0 86-75 154-165 154" id="aL"/><path fill="#a9afb8" d="M628 22C291 22 81-210 81-554c0-346 210-578 547-578 265 0 455 142 497 372l-279 52c-25-116-99-188-215-188-160 0-244 139-244 341 0 200 84 341 244 341 116 0 193-74 217-195l279 51C1085-123 896 22 628 22" id="aM"/><g id="A"><use transform="matrix(0.011907552083333333,0,0,0.011907552083333333,0,0)" xlink:href="#aI"/><use transform="matrix(0.011907552083333333,0,0,0.011907552083333333,15.96802734375,0)" xlink:href="#aG"/><use transform="matrix(0.011907552083333333,0,0,0.011907552083333333,30.495240885416667,0)" xlink:href="#aJ"/><use transform="matrix(0.011907552083333333,0,0,0.011907552083333333,40.80718098958334,0)" xlink:href="#aK"/><use transform="matrix(0.011907552083333333,0,0,0.011907552083333333,55.429654947916674,0)" xlink:href="#aL"/><use transform="matrix(0.011907552083333333,0,0,0.011907552083333333,62.03834635416668,0)" xlink:href="#aM"/><use transform="matrix(0.011907552083333333,0,0,0.011907552083333333,76.38694661458334,0)" xlink:href="#aG"/></g><path fill="#a9afb8" d="M169-607c0-330 107-732 258-974h279c-145 311-231 674-231 974 0 262 67 512 231 886H427C258-1 169-307 169-607" id="aN"/><path fill="#a9afb8" d="M537 19C279 19 81-185 81-557c0-382 206-575 454-575 190 0 278 113 318 202h10v-560h300V0H868v-179h-15C812-89 719 19 537 19zm92-241c153 0 240-134 240-336 0-203-86-334-240-334-158 0-240 138-240 334 0 197 84 336 240 336" id="aO"/><path fill="#a9afb8" d="M750-1118v229H516V0H217v-889H20v-229h197v-86c0-238 156-356 363-356 94 0 178 20 215 31l-54 226c-25-7-61-15-100-15-123-3-131 84-125 200h234" id="aP"/><path fill="#a9afb8" d="M818-733v240H140v-240h678" id="aQ"/><path fill="#a9afb8" d="M428-647V0H128v-1490h294v586c65-146 175-228 341-228 232 0 385 159 385 421V0H847v-659c0-139-76-222-202-222-128 0-217 86-217 234" id="aR"/><path fill="#a9afb8" d="M428-647V0H128v-1118h283l4 231c63-156 176-245 348-245 232 0 384 159 384 421V0H847v-659c0-139-76-222-202-222-128 0-217 86-217 234" id="aS"/><path fill="#a9afb8" d="M625 442c-280 0-454-114-503-274l258-72c28 63 97 128 243 128 153 0 246-69 246-216v-206h-23C805-108 717-16 536-16 284-16 81-191 81-561c0-378 208-571 456-571 188 0 280 113 321 202h13v-188h295V-9c0 303-226 451-541 451zm5-686c153 0 240-119 240-319 0-198-86-329-240-329-158 0-241 137-241 329 0 195 85 319 241 319" id="aT"/><path fill="#a9afb8" d="M67 279c166-379 230-627 230-886 0-300-86-663-230-974h278c151 241 258 644 258 974 0 302-90 608-258 886H67" id="aU"/><g id="B"><use transform="matrix(0.011907552083333333,0,0,0.011907552083333333,0,0)" xlink:href="#aN"/><use transform="matrix(0.011907552083333333,0,0,0.011907552083333333,9.061647135416667,0)" xlink:href="#aO"/><use transform="matrix(0.011907552083333333,0,0,0.011907552083333333,24.434296875,0)" xlink:href="#aJ"/><use transform="matrix(0.011907552083333333,0,0,0.011907552083333333,34.03178385416667,0)" xlink:href="#aE"/><use transform="matrix(0.011907552083333333,0,0,0.011907552083333333,48.18986328125,0)" xlink:href="#aP"/><use transform="matrix(0.011907552083333333,0,0,0.011907552083333333,56.93000651041665,0)" xlink:href="#aH"/><use transform="matrix(0.011907552083333333,0,0,0.011907552083333333,65.62251953124999,0)" xlink:href="#aG"/><use transform="matrix(0.011907552083333333,0,0,0.011907552083333333,80.38788411458333,0)" xlink:href="#aE"/><use transform="matrix(0.011907552083333333,0,0,0.011907552083333333,94.54596354166667,0)" xlink:href="#aQ"/><use transform="matrix(0.011907552083333333,0,0,0.011907552083333333,105.9533984375,0)" xlink:href="#aM"/><use transform="matrix(0.011907552083333333,0,0,0.011907552083333333,120.30199869791667,0)" xlink:href="#aR"/><use transform="matrix(0.011907552083333333,0,0,0.011907552083333333,135.48412760416667,0)" xlink:href="#aE"/><use transform="matrix(0.011907552083333333,0,0,0.011907552083333333,149.64220703125,0)" xlink:href="#aF"/><use transform="matrix(0.011907552083333333,0,0,0.011907552083333333,156.25089843749998,0)" xlink:href="#aF"/><use transform="matrix(0.011907552083333333,0,0,0.011907552083333333,162.85958984374997,0)" xlink:href="#aG"/><use transform="matrix(0.011907552083333333,0,0,0.011907552083333333,177.38680338541664,0)" xlink:href="#aS"/><use transform="matrix(0.011907552083333333,0,0,0.011907552083333333,192.56893229166664,0)" xlink:href="#aT"/><use transform="matrix(0.011907552083333333,0,0,0.011907552083333333,207.9773046875,0)" xlink:href="#aG"/><use transform="matrix(0.011907552083333333,0,0,0.011907552083333333,222.19492187499995,0)" xlink:href="#aU"/></g><path fill="#a9afb8" d="M180 0v-1490h190v1322h690V0H180" id="aV"/><path fill="#a9afb8" d="M628 24c-324 0-524-230-524-574 0-343 198-582 503-582 237 0 487 146 487 559v75H286c9 234 145 362 343 362 132 0 231-58 273-172l174 48C1024-91 857 24 628 24zM287-650h624c-17-190-120-322-304-322-192 0-309 151-320 322" id="aW"/><path fill="#a9afb8" d="M613 24c-304 0-509-231-509-576 0-350 205-580 509-580 305 0 511 230 511 580 0 345-206 576-511 576zm0-161c226 0 329-195 329-415 0-222-103-419-329-419-223 0-326 196-326 419 0 220 103 415 326 415" id="aX"/><path fill="#a9afb8" d="M338-670V0H158v-1118h173l1 207c72-158 192-221 342-221 226 0 378 139 378 422V0H872v-695c0-172-96-275-252-275-161 0-282 109-282 300" id="aY"/><path fill="#a9afb8" d="M471 26C259 26 90-98 90-318c0-256 228-303 435-329 202-27 287-16 287-108 0-139-79-219-234-219-161 0-248 86-283 164l-173-57c86-203 278-265 451-265 150 0 419 46 419 395V0H815v-152h-12C765-73 660 26 471 26zm31-159c199 0 310-134 310-271v-155c-30 35-226 55-295 64-131 17-246 59-246 186 0 116 97 176 231 176" id="aZ"/><path fill="#a9afb8" d="M158 0v-1118h174v172h12c41-113 157-188 290-188 26 0 70 2 91 3v181c-11-2-60-10-108-10-161 0-279 109-279 260V0H158" id="ba"/><path fill="#a9afb8" d="M577 24c-279 0-473-224-473-580 0-354 195-576 474-576 218 0 287 134 324 193h14v-551h180V0H922v-173h-20C865-111 790 24 577 24zm27-161c203 0 314-172 314-421 0-247-108-413-314-413-212 0-317 181-317 413 0 235 108 421 317 421" id="bb"/><g id="C"><use transform="matrix(0.006946072048611111,0,0,0.006946072048611111,0,0)" xlink:href="#aV"/><use transform="matrix(0.006946072048611111,0,0,0.006946072048611111,8.043551432291666,0)" xlink:href="#aW"/><use transform="matrix(0.006946072048611111,0,0,0.006946072048611111,16.337161458333334,0)" xlink:href="#aX"/><use transform="matrix(0.006946072048611111,0,0,0.006946072048611111,24.866937934027778,0)" xlink:href="#aY"/><use transform="matrix(0.006946072048611111,0,0,0.006946072048611111,33.27168511284722,0)" xlink:href="#aZ"/><use transform="matrix(0.006946072048611111,0,0,0.006946072048611111,41.25966796875,0)" xlink:href="#ba"/><use transform="matrix(0.006946072048611111,0,0,0.006946072048611111,46.37892306857639,0)" xlink:href="#bb"/><use transform="matrix(0.006946072048611111,0,0,0.006946072048611111,55.08929741753472,0)" xlink:href="#aX"/></g><path fill="#a9afb8" d="M180 0v-1490h901v168H370v510h643v168H370V0H180" id="bc"/><path fill="#a9afb8" d="M613 24c-304 0-509-231-509-576 0-350 205-580 509-580 216 0 392 114 453 309l-173 49c-33-115-133-197-280-197-223 0-326 196-326 419 0 220 103 415 326 415 150 0 252-85 285-206l172 49C1010-95 832 24 613 24" id="bd"/><path fill="#a9afb8" d="M538 24C308 24 148-78 108-271l171-41c32 123 123 178 257 178 156 0 256-77 256-169 0-77-54-128-164-154l-186-44c-203-48-300-148-300-305 0-192 176-326 414-326 230 0 351 112 402 269l-163 42c-31-80-94-158-238-158-133 0-233 69-233 162 0 83 57 129 188 160l169 40c203 48 298 149 298 302 0 196-179 339-441 339" id="be"/><path fill="#a9afb8" d="M158 0v-1118h180V0H158zm91-1301c-68 0-125-53-125-119s57-119 125-119c69 0 126 53 126 119s-57 119-126 119" id="bf"/><g id="D"><use transform="matrix(0.006946072048611111,0,0,0.006946072048611111,0,0)" xlink:href="#bc"/><use transform="matrix(0.006946072048611111,0,0,0.006946072048611111,7.835169270833333,0)" xlink:href="#aX"/><use transform="matrix(0.006946072048611111,0,0,0.006946072048611111,16.364945746527777,0)" xlink:href="#ba"/><use transform="matrix(0.006946072048611111,0,0,0.006946072048611111,21.484200846354167,0)" xlink:href="#bd"/><use transform="matrix(0.006946072048611111,0,0,0.006946072048611111,29.611105143229167,0)" xlink:href="#aX"/><use transform="matrix(0.006946072048611111,0,0,0.006946072048611111,38.140881618923615,0)" xlink:href="#aY"/><use transform="matrix(0.006946072048611111,0,0,0.006946072048611111,46.54562879774306,0)" xlink:href="#aW"/><use transform="matrix(0.006946072048611111,0,0,0.006946072048611111,54.839238823784726,0)" xlink:href="#be"/><use transform="matrix(0.006946072048611111,0,0,0.006946072048611111,62.347942708333335,0)" xlink:href="#bf"/></g><path fill="#a9afb8" d="M419-1970V480H262v-2450h157" id="bg"/><use transform="matrix(0.006946072048611111,0,0,0.006946072048611111,0,0)" xlink:href="#bg" id="E"/><path fill="#a9afb8" d="M645 0H180v-1490h484c435 0 692 280 692 742 0 466-257 748-711 748zM370-168h263c363 0 539-218 539-580 0-358-176-574-521-574H370v1154" id="bh"/><path fill="#a9afb8" d="M158 0v-1118h175l1 205c55-151 181-225 313-225 147 0 245 90 285 228 53-141 190-228 352-228 194 0 352 125 352 384V0h-181v-749c0-161-105-225-225-225-151 0-243 103-243 244V0H807v-767c0-124-93-207-219-207-131 0-250 92-250 270V0H158" id="bi"/><path fill="#a9afb8" d="M677 24c-213 0-288-135-325-197h-20V0H158v-1490h180v551h14c37-59 106-193 324-193 279 0 474 222 474 576 0 356-194 580-473 580zm-27-161c209 0 317-186 317-421 0-232-105-413-317-413-206 0-314 166-314 413 0 249 111 421 314 421" id="bj"/><g id="F"><use transform="matrix(0.006946072048611111,0,0,0.006946072048611111,0,0)" xlink:href="#bh"/><use transform="matrix(0.006946072048611111,0,0,0.006946072048611111,10.266294487847222,0)" xlink:href="#aW"/><use transform="matrix(0.006946072048611111,0,0,0.006946072048611111,18.55990451388889,0)" xlink:href="#bd"/><use transform="matrix(0.006946072048611111,0,0,0.006946072048611111,26.68680881076389,0)" xlink:href="#aW"/><use transform="matrix(0.006946072048611111,0,0,0.006946072048611111,34.980418836805555,0)" xlink:href="#bi"/><use transform="matrix(0.006946072048611111,0,0,0.006946072048611111,47.44167209201389,0)" xlink:href="#bj"/><use transform="matrix(0.006946072048611111,0,0,0.006946072048611111,56.15204644097222,0)" xlink:href="#aW"/><use transform="matrix(0.006946072048611111,0,0,0.006946072048611111,64.44565646701389,0)" xlink:href="#ba"/></g><path fill="#a9afb8" d="M154 0v-137l495-537c165-179 249-281 249-418 0-156-121-253-280-253-170 0-278 110-278 278H158c0-264 200-443 465-443 266 0 455 183 455 416 0 161-73 288-336 568L416-179v12h687V0H154" id="bk"/><path fill="#a9afb8" d="M120-303v-155l652-1032h231v1020h202v167h-202V0H821v-303H120zm702-167v-782h-12L323-482v12h499" id="bl"/><path fill="#a9afb8" d="M128 359l88-567h206L266 359H128" id="bm"/><g id="G"><use transform="matrix(0.006946072048611111,0,0,0.006946072048611111,0,0)" xlink:href="#bk"/><use transform="matrix(0.006946072048611111,0,0,0.006946072048611111,8.453369683159723,0)" xlink:href="#bl"/><use transform="matrix(0.006946072048611111,0,0,0.006946072048611111,17.163744032118057,0)" xlink:href="#bm"/></g><path fill="#a9afb8" d="M646 20c-332 0-524-278-524-764 0-483 194-766 524-766s524 283 524 766c0 485-191 764-524 764zm0-166c218 0 341-220 341-598 0-380-123-601-341-601s-341 222-341 601c0 378 123 598 341 598" id="bn"/><path fill="#a9afb8" d="M626 20c-262 0-458-168-468-396h184c12 133 134 229 284 229 180 0 311-137 311-326 0-192-136-335-323-335-92 0-196 33-255 78l-178-22 88-738h784v167H429l-51 435h8c61-51 160-87 263-87 273 0 474 211 474 499 0 286-210 496-497 496" id="bo"/><g id="H"><use transform="matrix(0.006946072048611111,0,0,0.006946072048611111,0,0)" xlink:href="#bk"/><use transform="matrix(0.006946072048611111,0,0,0.006946072048611111,8.675643988715278,0)" xlink:href="#bn"/><use transform="matrix(0.006946072048611111,0,0,0.006946072048611111,17.649969075520833,0)" xlink:href="#bk"/><use transform="matrix(0.006946072048611111,0,0,0.006946072048611111,26.32561306423611,0)" xlink:href="#bo"/></g></defs></g></svg>